<?xml version="1.0" encoding="iso-8859-1"?>
<!-- Uploaded to: SVG Repo, www.svgrepo.com, Generator: SVG Repo Mixer Tools -->
<svg version="1.1" id="Layer_1" xmlns="http://www.w3.org/2000/svg" xmlns:xlink="http://www.w3.org/1999/xlink" 
	 viewBox="0 0 512 512" xml:space="preserve">
<polygon style="fill:#DCDCDC;" points="503.83,155.234 503.83,503.83 471.149,503.83 416.681,114.383 "/>
<polygon style="fill:#EEEEEE;" points="471.149,155.234 471.149,503.83 8.17,503.83 8.17,155.234 239.66,73.532 "/>
<polygon style="fill:#FE834D;" points="503.83,8.17 503.83,155.234 471.149,155.234 438.468,81.702 471.149,8.17 "/>
<path style="fill:#FEA680;" d="M8.17,8.17v147.064h462.979V8.17H8.17z M146.156,98.043c-9.024,0-16.34-7.316-16.34-16.34
	s7.316-16.34,16.34-16.34c9.024,0,16.34,7.316,16.34,16.34S155.181,98.043,146.156,98.043z M365.844,98.043
	c-9.024,0-16.34-7.316-16.34-16.34s7.316-16.34,16.34-16.34s16.34,7.316,16.34,16.34S374.869,98.043,365.844,98.043z"/>
<polygon style="fill:#B9B9B9;" points="313.191,198.809 313.191,313.191 280.511,313.191 247.83,256 280.511,198.809 "/>
<rect x="198.809" y="198.809" style="fill:#DCDCDC;" width="81.702" height="114.383"/>
<polygon style="fill:#B9B9B9;" points="166.128,198.809 166.128,313.191 133.447,313.191 100.766,256 133.447,198.809 "/>
<rect x="51.745" y="198.809" style="fill:#DCDCDC;" width="81.702" height="114.383"/>
<polygon style="fill:#FE834D;" points="460.255,198.809 460.255,313.191 427.574,313.191 394.894,256 427.574,198.809 "/>
<rect x="345.872" y="198.809" style="fill:#FEA680;" width="81.702" height="114.383"/>
<polygon style="fill:#B9B9B9;" points="313.191,345.872 313.191,460.255 280.511,460.255 247.83,403.064 280.511,345.872 "/>
<rect x="198.809" y="345.872" style="fill:#DCDCDC;" width="81.702" height="114.383"/>
<polygon style="fill:#B9B9B9;" points="166.128,345.872 166.128,460.255 133.447,460.255 100.766,403.064 133.447,345.872 "/>
<rect x="51.745" y="345.872" style="fill:#DCDCDC;" width="81.702" height="114.383"/>
<polygon style="fill:#FE834D;" points="460.255,345.872 460.255,460.255 427.574,460.255 394.894,403.064 427.574,345.872 "/>
<rect x="345.872" y="345.872" style="fill:#FEA680;" width="81.702" height="114.383"/>
<path d="M313.191,190.638H198.809c-4.513,0-8.17,3.658-8.17,8.17v114.383c0,4.512,3.657,8.17,8.17,8.17h114.383
	c4.513,0,8.17-3.658,8.17-8.17V198.809C321.362,194.296,317.705,190.638,313.191,190.638z M305.021,305.021h-98.043v-98.043h98.043
	V305.021z"/>
<path d="M166.128,190.638H51.745c-4.513,0-8.17,3.658-8.17,8.17v114.383c0,4.512,3.657,8.17,8.17,8.17h114.383
	c4.513,0,8.17-3.658,8.17-8.17V198.809C174.298,194.296,170.641,190.638,166.128,190.638z M157.957,305.021H59.915v-98.043h98.043
	V305.021z"/>
<path d="M460.255,190.638H345.872c-4.513,0-8.17,3.658-8.17,8.17v114.383c0,4.512,3.657,8.17,8.17,8.17h114.383
	c4.513,0,8.17-3.658,8.17-8.17V198.809C468.426,194.296,464.769,190.638,460.255,190.638z M452.085,305.021h-98.043v-98.043h98.043
	V305.021z"/>
<path d="M313.191,337.702H198.809c-4.513,0-8.17,3.658-8.17,8.17v114.383c0,4.512,3.657,8.17,8.17,8.17h114.383
	c4.513,0,8.17-3.658,8.17-8.17V345.872C321.362,341.36,317.705,337.702,313.191,337.702z M305.021,452.085h-98.043v-98.043h98.043
	V452.085z"/>
<path d="M166.128,337.702H51.745c-4.513,0-8.17,3.658-8.17,8.17v114.383c0,4.512,3.657,8.17,8.17,8.17h114.383
	c4.513,0,8.17-3.658,8.17-8.17V345.872C174.298,341.36,170.641,337.702,166.128,337.702z M157.957,452.085H59.915v-98.043h98.043
	V452.085z"/>
<path d="M460.255,337.702H345.872c-4.513,0-8.17,3.658-8.17,8.17v114.383c0,4.512,3.657,8.17,8.17,8.17h114.383
	c4.513,0,8.17-3.658,8.17-8.17V345.872C468.426,341.36,464.769,337.702,460.255,337.702z M452.085,452.085h-98.043v-98.043h98.043
	V452.085z"/>
<path d="M365.844,106.213c13.515,0,24.511-10.995,24.511-24.511s-10.996-24.511-24.511-24.511
	c-13.515,0-24.511,10.995-24.511,24.511S352.329,106.213,365.844,106.213z M365.844,73.532c4.506,0,8.17,3.665,8.17,8.17
	s-3.665,8.17-8.17,8.17s-8.17-3.665-8.17-8.17S361.338,73.532,365.844,73.532z"/>
<path d="M146.156,106.213c13.515,0,24.511-10.995,24.511-24.511s-10.996-24.511-24.511-24.511
	c-13.515,0-24.511,10.995-24.511,24.511S132.642,106.213,146.156,106.213z M146.156,73.532c4.506,0,8.17,3.665,8.17,8.17
	s-3.665,8.17-8.17,8.17c-4.506,0-8.17-3.665-8.17-8.17S141.651,73.532,146.156,73.532z"/>
<path d="M503.83,0H8.17C3.657,0,0,3.658,0,8.17v495.66c0,4.512,3.657,8.17,8.17,8.17h495.66c4.513,0,8.17-3.658,8.17-8.17V8.17
	C512,3.658,508.343,0,503.83,0z M16.34,495.66V163.404h57.191c4.513,0,8.17-3.658,8.17-8.17s-3.657-8.17-8.17-8.17H16.34V16.34
	H495.66v130.723H106.213c-4.513,0-8.17,3.658-8.17,8.17s3.657,8.17,8.17,8.17H495.66V495.66H16.34z"/>
</svg>